# xmcd
#
# Track frame offsets:
# 150
# 17069
# 33759
# 47687
# 64639
# 78706
# 94779
# 111455
# 125352
# 140786
# 154386
# 168965
# 185023
# 200677
#
# Disc length: 2890 seconds
#
#
# Revision: 0
# Processed by: cddbd v1.5.2PL0 Copyright (c) Steve Scherf et al.
# Submitted via: FreeRIP 2.944 
#
DISCID=c60b480e
DTITLE=Portal da Serra-Energia contagiante - Energia Contagiante
DYEAR=2014
DGENRE=Country
TTITLE0=Namorado Otário-Portal da Serra
TTITLE1=Você Não sabe Amar-Portal da Serra
TTITLE2=Meu Novo Endereço-Portal da Serra
TTITLE3=7 Dias da Semana-Portal da Serra
TTITLE4=Cão Sem Dono-Portal da Serra
TTITLE5=Amor Total/Xis Salada-Portal da Serra
TTITLE6=Nova Festa Legal-Portal da Serra
TTITLE7=Por Você-Portal da Serra
TTITLE8=Wisky Com gelo-Portal da Serra
TTITLE9=Copo Vazio-Portal da Serra
TTITLE10=Tô Sofrendo-Portal da Serra
TTITLE11=Um Passarinho-Portal da Serra
TTITLE12=Eu Só Fico Onde Tem Cerveja-Portal da Serra
TTITLE13=Abraço de Pai-Portal da Serra
EXTD=
EXTT0=
EXTT1=
EXTT2=
EXTT3=
EXTT4=
EXTT5=
EXTT6=
EXTT7=
EXTT8=
EXTT9=
EXTT10=
EXTT11=
EXTT12=
EXTT13=
PLAYORDER=
